# xmcd
#
# Track frame offsets:
# 150
# 711
# 23831
# 53792
# 78238
# 93844
# 122760
# 155398
# 189299
# 223838
# 250938
# 286569
# 319381
# 335567
#
# Disc length: 4479 seconds
#
#
# Revision: 0
# Processed by: cddbd v1.5.2PL0 Copyright (c) Steve Scherf et al.
# Submitted via: FreeRIP 2.96 
#
DISCID=b5117d0e
DTITLE=Ingrid Noll - Die Apothekerin
DYEAR=1997
DGENRE=Speech
TTITLE0=CD3 Fortsetzung
TTITLE1=23 Die Apothekerin
TTITLE2=24 Die Apothekerin
TTITLE3=25 Die Apothekerin
TTITLE4=26 Die Apothekerin
TTITLE5=27 Die Apothekerin
TTITLE6=28 Die Apothekerin
TTITLE7=29 Die Apothekerin
TTITLE8=30 Die Apothekerin
TTITLE9=31 Die Apothekerin
TTITLE10=32 Die Apothekerin
TTITLE11=33 Die Apothekerin
TTITLE12=34 Die Apothekerin
TTITLE13=zur Fortsetzung CD4 einlegen
EXTD=gelesen von Silvia Jost
EXTT0=
EXTT1=
EXTT2=
EXTT3=
EXTT4=
EXTT5=
EXTT6=
EXTT7=
EXTT8=
EXTT9=
EXTT10=
EXTT11=
EXTT12=
EXTT13=
PLAYORDER=
